<svg width="39" height="39" viewBox="0 0 39 39" fill="none" xmlns="http://www.w3.org/2000/svg">
<circle cx="19.5" cy="19.5" r="19.5" fill="#C6FF80"/>
<path d="M11 28C10.45 28 9.97917 27.8042 9.5875 27.4125C9.19583 27.0208 9 26.55 9 26V14C9 13.45 9.19583 12.9792 9.5875 12.5875C9.97917 12.1958 10.45 12 11 12H17L19 14H27C27.55 14 28.0208 14.1958 28.4125 14.5875C28.8042 14.9792 29 15.45 29 16V26C29 26.55 28.8042 27.0208 28.4125 27.4125C28.0208 27.8042 27.55 28 27 28H11ZM11 26H27V16H18.175L16.175 14H11V26Z" fill="#1D1B20"/>
</svg>
