<svg width="160" height="15" viewBox="0 0 160 15" fill="none" xmlns="http://www.w3.org/2000/svg">
<path d="M5.57 6.584H8.522C9.254 6.584 9.788 6.5 10.124 6.332C10.46 6.152 10.628 5.834 10.628 5.378C10.628 4.91 10.454 4.604 10.106 4.46C9.77 4.316 9.2 4.244 8.396 4.244H5.57V6.584ZM10.394 0.932C12.542 0.932 13.982 1.154 14.714 1.598C15.71 2.21 16.208 3.158 16.208 4.442C16.208 5.222 16.016 5.906 15.632 6.494C15.26 7.07 14.738 7.49 14.066 7.754C14.714 8.03 15.134 8.36 15.326 8.744C15.53 9.128 15.65 9.728 15.686 10.544C15.758 11.996 15.842 12.884 15.938 13.208C16.046 13.496 16.196 13.694 16.388 13.802V14H10.772C10.652 13.808 10.574 13.58 10.538 13.316C10.502 13.052 10.478 12.716 10.466 12.308C10.466 11.9 10.454 11.57 10.43 11.318C10.382 10.838 10.22 10.502 9.944 10.31C9.668 10.118 9.218 10.022 8.594 10.022H5.57V14H0.44V0.932H10.394ZM31.6797 10.922C30.9957 13.202 28.5477 14.342 24.3357 14.342C22.0197 14.342 20.2377 13.868 18.9897 12.92C17.7537 11.972 17.1357 10.646 17.1357 8.942C17.1357 7.238 17.7537 5.912 18.9897 4.964C20.2377 4.016 22.0197 3.542 24.3357 3.542C26.7837 3.542 28.6317 4.076 29.8797 5.144C31.1397 6.2 31.7697 7.754 31.7697 9.806V9.986H21.9777C21.9777 10.526 22.2057 10.952 22.6617 11.264C23.1177 11.564 23.7657 11.714 24.6057 11.714C25.7217 11.714 26.4417 11.45 26.7657 10.922H31.6797ZM21.7437 7.826H27.1257C27.0657 7.262 26.8137 6.83 26.3697 6.53C25.9257 6.218 25.3317 6.062 24.5877 6.062C22.9317 6.062 21.9837 6.65 21.7437 7.826ZM33.4634 14V3.884H37.9814V4.928C39.1814 4.1 40.5194 3.686 41.9954 3.686C43.4954 3.686 44.5814 4.07 45.2534 4.838C45.9374 5.594 46.2794 6.782 46.2794 8.402V14H41.7614V9.248C41.7614 8.528 41.6414 8.018 41.4014 7.718C41.1734 7.418 40.7474 7.268 40.1234 7.268C39.4634 7.268 38.9414 7.43 38.5574 7.754C38.1734 8.066 37.9814 8.498 37.9814 9.05V14H33.4634ZM49.8037 12.92C48.5797 11.972 47.9677 10.646 47.9677 8.942C47.9677 7.238 48.5797 5.912 49.8037 4.964C51.0397 4.016 52.8037 3.542 55.0957 3.542C57.3757 3.542 59.1277 4.016 60.3517 4.964C61.5877 5.912 62.2057 7.238 62.2057 8.942C62.2057 10.646 61.5877 11.972 60.3517 12.92C59.1277 13.868 57.3757 14.342 55.0957 14.342C52.8037 14.342 51.0397 13.868 49.8037 12.92ZM53.3677 7.286C52.9477 7.694 52.7377 8.246 52.7377 8.942C52.7377 9.638 52.9477 10.196 53.3677 10.616C53.7997 11.024 54.3697 11.228 55.0777 11.228C55.7857 11.228 56.3497 11.024 56.7697 10.616C57.2017 10.196 57.4177 9.638 57.4177 8.942C57.4177 8.246 57.2017 7.694 56.7697 7.286C56.3497 6.866 55.7857 6.656 55.0777 6.656C54.3697 6.656 53.7997 6.866 53.3677 7.286ZM67.0763 14L62.3603 3.884H67.5623L69.1823 8.402C69.3623 8.894 69.5003 9.422 69.5963 9.986C69.6923 9.506 69.8363 9.008 70.0283 8.492L71.6483 3.884H76.7963L72.0803 14H67.0763ZM91.6387 10.922C90.9547 13.202 88.5067 14.342 84.2947 14.342C81.9787 14.342 80.1967 13.868 78.9487 12.92C77.7127 11.972 77.0947 10.646 77.0947 8.942C77.0947 7.238 77.7127 5.912 78.9487 4.964C80.1967 4.016 81.9787 3.542 84.2947 3.542C86.7427 3.542 88.5907 4.076 89.8387 5.144C91.0987 6.2 91.7287 7.754 91.7287 9.806V9.986H81.9367C81.9367 10.526 82.1647 10.952 82.6207 11.264C83.0767 11.564 83.7247 11.714 84.5647 11.714C85.6807 11.714 86.4007 11.45 86.7247 10.922H91.6387ZM81.7027 7.826H87.0847C87.0247 7.262 86.7727 6.83 86.3287 6.53C85.8847 6.218 85.2907 6.062 84.5467 6.062C82.8907 6.062 81.9427 6.65 81.7027 7.826ZM92.6844 10.778H98.2104C98.2464 11.138 98.4024 11.396 98.6784 11.552C98.9664 11.696 99.4044 11.768 99.9924 11.768C101.036 11.768 101.558 11.54 101.558 11.084C101.558 10.796 101.414 10.61 101.126 10.526C100.838 10.43 100.292 10.346 99.4884 10.274C99.4044 10.274 99.3384 10.274 99.2904 10.274C99.2424 10.262 99.1764 10.256 99.0924 10.256C99.0204 10.244 98.9484 10.232 98.8764 10.22C98.0724 10.148 97.4724 10.088 97.0764 10.04C96.6804 9.992 96.2184 9.914 95.6904 9.806C95.1744 9.686 94.7304 9.542 94.3584 9.374C93.4104 8.954 92.9364 8.132 92.9364 6.908C92.9364 5.72 93.4824 4.862 94.5744 4.334C95.6664 3.806 97.3644 3.542 99.6684 3.542C101.864 3.542 103.508 3.818 104.6 4.37C105.692 4.91 106.274 5.762 106.346 6.926H101.126C101.102 6.578 100.94 6.332 100.64 6.188C100.352 6.032 99.9024 5.954 99.2904 5.954C98.2464 5.954 97.7244 6.188 97.7244 6.656C97.7244 6.968 97.9284 7.172 98.3364 7.268C98.4684 7.292 99.0444 7.352 100.064 7.448C102.728 7.688 104.258 7.874 104.654 8.006C105.422 8.27 105.968 8.6 106.292 8.996C106.616 9.392 106.778 9.95 106.778 10.67C106.778 11.99 106.196 12.932 105.032 13.496C103.868 14.06 102.014 14.342 99.4704 14.342C97.2024 14.342 95.5164 14.06 94.4124 13.496C93.3084 12.932 92.7324 12.026 92.6844 10.778ZM115.415 13.982C114.623 14.114 113.879 14.18 113.183 14.18C112.067 14.18 111.167 14.042 110.483 13.766C109.919 13.538 109.547 13.208 109.367 12.776C109.187 12.344 109.097 11.726 109.097 10.922V6.962H107.495V4.118H109.097V0.805999H113.669V4.118H115.289V6.962H113.669V9.05C113.669 9.938 113.723 10.52 113.831 10.796C113.939 11.06 114.251 11.192 114.767 11.192H115.415V13.982Z" fill="black"/>
<path d="M130.953 0.932V7.322C130.953 8.594 131.139 9.494 131.511 10.022C131.895 10.55 132.597 10.814 133.617 10.814C134.637 10.814 135.333 10.55 135.705 10.022C136.077 9.494 136.263 8.594 136.263 7.322V0.932H141.321V7.79C141.321 10.07 140.697 11.738 139.449 12.794C138.213 13.838 136.269 14.36 133.617 14.36C130.977 14.36 129.027 13.832 127.767 12.776C126.519 11.708 125.895 10.046 125.895 7.79V0.932H130.953ZM141.898 14L147.55 0.932H153.976L159.25 14H153.778L153.346 12.704H147.784L147.316 14H141.898ZM148.99 9.5H152.212L150.646 4.892L148.99 9.5Z" fill="url(#paint0_linear_9_42)"/>
<defs>
<linearGradient id="paint0_linear_9_42" x1="79" y1="20" x2="79" y2="-1" gradientUnits="userSpaceOnUse">
<stop stop-color="#0088FF"/>
<stop offset="1" stop-color="#C6FF80"/>
</linearGradient>
</defs>
</svg>
